<?xml version="1.0" encoding="UTF-8" standalone="no"?>
<!DOCTYPE svg PUBLIC "-//W3C//DTD SVG 1.1//EN" "http://www.w3.org/Graphics/SVG/1.1/DTD/svg11.dtd">
<svg xmlns="http://www.w3.org/2000/svg" version="1.1" viewBox="0.00 0.00 512.00 512.00">
<path fill="#8e28e2" d="
  M 508.50 72.20
  A 0.55 0.54 -76.3 0 1 508.97 72.98
  C 506.44 78.42 503.43 84.23 500.46 89.18
  Q 483.13 118.04 464.64 146.54
  A 1.05 1.05 0.0 0 1 463.76 147.02
  Q 391.01 146.99 281.51 147.00
  C 271.75 147.01 261.56 146.01 253.15 146.02
  Q 187.95 146.11 121.71 145.97
  Q 116.77 145.96 109.38 145.37
  Q 103.85 144.94 97.06 144.98
  A 1.33 1.33 0.0 0 1 95.88 143.02
  Q 96.97 141.01 98.68 138.17
  Q 109.59 120.01 131.43 86.17
  Q 135.52 79.83 141.60 71.67
  A 2.73 2.72 -71.5 0 1 143.78 70.58
  Q 210.68 70.56 298.90 70.55
  C 364.49 70.55 422.27 71.20 485.34 70.98
  C 486.93 70.97 488.96 71.26 491.01 71.46
  Q 492.52 71.61 508.50 72.20
  Z"
/>
<path fill="#8e28e2" d="
  M 3.35 148.56
  A 0.28 0.27 76.0 0 1 3.58 148.17
  Q 8.81 147.81 13.50 147.26
  Q 15.71 147.00 23.51 147.00
  Q 46.34 147.00 93.67 147.00
  A 0.83 0.82 -15.4 0 1 94.38 147.40
  L 139.81 222.11
  A 1.89 1.88 74.4 0 0 141.42 223.02
  Q 179.96 222.97 215.23 223.03
  C 219.13 223.04 222.61 223.99 226.32 224.06
  A 1.62 1.58 -23.9 0 1 227.32 224.43
  Q 228.56 225.47 227.78 227.29
  Q 226.19 231.01 223.60 235.63
  Q 210.00 259.98 191.29 290.80
  Q 171.77 322.95 151.57 356.58
  Q 147.98 362.56 145.20 368.92
  A 2.18 2.18 0.0 0 0 146.69 371.91
  C 149.38 372.55 151.68 372.99 154.48 373.00
  Q 157.67 373.01 201.75 373.00
  Q 206.77 373.00 208.19 372.83
  C 215.11 371.99 222.22 372.12 228.76 371.15
  C 230.40 370.91 232.00 371.09 233.67 370.98
  A 2.29 2.26 13.6 0 0 235.46 369.90
  L 325.98 221.90
  A 1.86 1.84 15.6 0 1 327.56 221.02
  Q 367.97 220.99 395.21 221.05
  C 401.84 221.07 408.35 222.27 415.42 222.01
  A 1.05 1.05 0.0 0 1 416.40 223.53
  Q 412.80 230.67 408.58 237.60
  Q 342.98 345.38 331.41 363.93
  Q 322.95 377.48 309.29 398.49
  Q 299.00 414.31 292.48 420.58
  Q 272.96 439.32 244.52 440.90
  C 237.77 441.27 228.75 441.07 221.87 440.63
  Q 194.02 438.84 174.26 419.04
  C 164.11 408.87 156.94 397.65 147.97 383.16
  Q 126.58 348.60 21.89 181.22
  C 15.24 170.58 8.52 159.84 3.35 148.56
  Z"
/>
</svg>
